<svg width="26" height="21" viewBox="0 0 26 21" fill="none" xmlns="http://www.w3.org/2000/svg">
<path d="M25.2856 2.58619L24.144 4.22877C19.166 0.766851 14.9634 2.05787 11.2573 3.19654C9.48245 3.84327 7.62094 4.22115 5.73438 4.31764C3.74042 4.30192 1.8032 3.65207 0.203125 2.46217L1.34473 0.819591C4.6665 3.13013 7.30322 2.31959 10.6416 1.29322C14.4 0.138924 19.5083 -1.42846 25.2856 2.58619ZM10.5376 9.29316C7.19824 10.3156 4.562 11.1272 1.24316 8.81855L0.101562 10.4612C1.70106 11.6515 3.6381 12.3014 5.63184 12.3167C7.51859 12.2205 9.38035 11.8426 11.1553 11.1955C14.8623 10.0559 19.064 8.76679 24.0425 12.2277L25.1841 10.5852C19.4082 6.56957 14.2988 8.13892 10.5376 9.29322V9.29316ZM10.436 17.2922C7.09863 18.3176 4.4624 19.1262 1.1416 16.8186L0 18.4611C1.59957 19.6508 3.53636 20.3003 5.52979 20.3156C7.41686 20.2195 9.27894 19.8416 11.0542 19.1945C14.7617 18.0559 18.9624 16.7648 23.9409 20.2268L25.0825 18.5842C19.3066 14.5686 14.1978 16.137 10.436 17.2922V17.2922Z" fill="#2E2E2E"/>
</svg>
