<svg width="23" height="23" viewBox="0 0 23 23" fill="none" xmlns="http://www.w3.org/2000/svg">
<path d="M22.5654 21.1514L16.0251 14.6111C17.3038 13.0205 18.0006 11.0408 18 9C17.9974 6.61385 17.0483 4.32618 15.3611 2.63892C13.6738 0.951653 11.3861 0.00260459 9 0C6.61388 0.00268912 4.32628 0.951793 2.63904 2.63904C0.951793 4.32628 0.00268912 6.61388 0 9C0.00268912 11.3861 0.951793 13.6737 2.63904 15.361C4.32628 17.0482 6.61388 17.9973 9 18C11.0408 18.0006 13.0205 17.3038 14.6111 16.0251L21.1514 22.5654L22.5654 21.1514ZM9 16C7.14415 15.9978 5.3649 15.2596 4.05261 13.9473C2.74033 12.635 2.00216 10.8559 2 9C2.00216 7.14415 2.74033 5.36496 4.05261 4.05267C5.3649 2.74039 7.14415 2.00216 9 2C10.8559 2.00216 12.6351 2.74039 13.9474 4.05267C15.2597 5.36496 15.9978 7.14415 16 9C15.9978 10.8559 15.2597 12.635 13.9474 13.9473C12.6351 15.2596 10.8559 15.9978 9 16Z" fill="#2E2E2E"/>
</svg>
