<svg width="230" height="30" viewBox="0 0 230 30" fill="none" xmlns="http://www.w3.org/2000/svg">
<g opacity="0.4">
<rect x="4" y="4" width="2" height="2" fill="#2EC0FF"/>
<rect x="4" y="14" width="2" height="2" fill="#2EC0FF"/>
<rect x="14" y="14" width="2" height="2" fill="#2EC0FF"/>
<rect x="24" y="14" width="2" height="2" fill="#2EC0FF"/>
<rect x="34" y="14" width="2" height="2" fill="#2EC0FF"/>
<rect x="44" y="14" width="2" height="2" fill="#2EC0FF"/>
<rect x="54" y="14" width="2" height="2" fill="#2EC0FF"/>
<rect x="64" y="14" width="2" height="2" fill="#2EC0FF"/>
<rect x="74" y="14" width="2" height="2" fill="#2EC0FF"/>
<rect x="84" y="14" width="2" height="2" fill="#2EC0FF"/>
<rect x="94" y="14" width="2" height="2" fill="#2EC0FF"/>
<rect x="104" y="14" width="2" height="2" fill="#2EC0FF"/>
<rect x="114" y="14" width="2" height="2" fill="#2EC0FF"/>
<rect x="124" y="14" width="2" height="2" fill="#2EC0FF"/>
<rect x="14" y="4" width="2" height="2" fill="#2EC0FF"/>
<rect x="6" y="24" width="2" height="2" transform="rotate(90 6 24)" fill="#2EC0FF"/>
<rect x="16" y="24" width="2" height="2" transform="rotate(90 16 24)" fill="#2EC0FF"/>
<rect x="26" y="24" width="2" height="2" transform="rotate(90 26 24)" fill="#2EC0FF"/>
<rect x="36" y="24" width="2" height="2" transform="rotate(90 36 24)" fill="#2EC0FF"/>
<rect x="46" y="24" width="2" height="2" transform="rotate(90 46 24)" fill="#2EC0FF"/>
<rect x="56" y="24" width="2" height="2" transform="rotate(90 56 24)" fill="#2EC0FF"/>
<rect x="66" y="24" width="2" height="2" transform="rotate(90 66 24)" fill="#2EC0FF"/>
<rect x="76" y="24" width="2" height="2" transform="rotate(90 76 24)" fill="#2EC0FF"/>
<rect x="86" y="24" width="2" height="2" transform="rotate(90 86 24)" fill="#2EC0FF"/>
<rect x="96" y="24" width="2" height="2" transform="rotate(90 96 24)" fill="#2EC0FF"/>
<rect x="106" y="24" width="2" height="2" transform="rotate(90 106 24)" fill="#2EC0FF"/>
<rect x="116" y="24" width="2" height="2" transform="rotate(90 116 24)" fill="#2EC0FF"/>
<rect x="126" y="24" width="2" height="2" transform="rotate(90 126 24)" fill="#2EC0FF"/>
<rect x="24" y="4" width="2" height="2" fill="#2EC0FF"/>
<rect x="34" y="4" width="2" height="2" fill="#2EC0FF"/>
<rect x="44" y="4" width="2" height="2" fill="#2EC0FF"/>
<rect x="54" y="4" width="2" height="2" fill="#2EC0FF"/>
<rect x="64" y="4" width="2" height="2" fill="#2EC0FF"/>
<rect x="74" y="4" width="2" height="2" fill="#2EC0FF"/>
<rect x="84" y="4" width="2" height="2" fill="#2EC0FF"/>
<rect x="94" y="4" width="2" height="2" fill="#2EC0FF"/>
<rect x="104" y="4" width="2" height="2" fill="#2EC0FF"/>
<rect x="114" y="4" width="2" height="2" fill="#2EC0FF"/>
<rect x="124" y="4" width="2" height="2" fill="#2EC0FF"/>
<rect x="134" y="14" width="2" height="2" fill="#2EC0FF"/>
<rect x="144" y="14" width="2" height="2" fill="#2EC0FF"/>
<rect x="154" y="14" width="2" height="2" fill="#2EC0FF"/>
<rect x="164" y="14" width="2" height="2" fill="#2EC0FF"/>
<rect x="174" y="14" width="2" height="2" fill="#2EC0FF"/>
<rect x="184" y="14" width="2" height="2" fill="#2EC0FF"/>
<rect x="194" y="14" width="2" height="2" fill="#2EC0FF"/>
<rect x="204" y="14" width="2" height="2" fill="#2EC0FF"/>
<rect x="214" y="14" width="2" height="2" fill="#2EC0FF"/>
<rect x="224" y="14" width="2" height="2" fill="#2EC0FF"/>
<rect x="136" y="24" width="2" height="2" transform="rotate(90 136 24)" fill="#2EC0FF"/>
<rect x="146" y="24" width="2" height="2" transform="rotate(90 146 24)" fill="#2EC0FF"/>
<rect x="156" y="24" width="2" height="2" transform="rotate(90 156 24)" fill="#2EC0FF"/>
<rect x="166" y="24" width="2" height="2" transform="rotate(90 166 24)" fill="#2EC0FF"/>
<rect x="176" y="24" width="2" height="2" transform="rotate(90 176 24)" fill="#2EC0FF"/>
<rect x="186" y="24" width="2" height="2" transform="rotate(90 186 24)" fill="#2EC0FF"/>
<rect x="196" y="24" width="2" height="2" transform="rotate(90 196 24)" fill="#2EC0FF"/>
<rect x="206" y="24" width="2" height="2" transform="rotate(90 206 24)" fill="#2EC0FF"/>
<rect x="216" y="24" width="2" height="2" transform="rotate(90 216 24)" fill="#2EC0FF"/>
<rect x="226" y="24" width="2" height="2" transform="rotate(90 226 24)" fill="#2EC0FF"/>
<rect x="134" y="4" width="2" height="2" fill="#2EC0FF"/>
<rect x="144" y="4" width="2" height="2" fill="#2EC0FF"/>
<rect x="154" y="4" width="2" height="2" fill="#2EC0FF"/>
<rect x="164" y="4" width="2" height="2" fill="#2EC0FF"/>
<rect x="174" y="4" width="2" height="2" fill="#2EC0FF"/>
<rect x="184" y="4" width="2" height="2" fill="#2EC0FF"/>
<rect x="194" y="4" width="2" height="2" fill="#2EC0FF"/>
<rect x="204" y="4" width="2" height="2" fill="#2EC0FF"/>
<rect x="214" y="4" width="2" height="2" fill="#2EC0FF"/>
<rect x="224" y="4" width="2" height="2" fill="#2EC0FF"/>
</g>
</svg>
